<svg version="1.1" id="Layer_1" xmlns="http://www.w3.org/2000/svg" xmlns:xlink="http://www.w3.org/1999/xlink" x="0px" y="0px"
	 width="100%" viewBox="0 0 1150 1130" enable-background="new 0 0 1150 1130" xml:space="preserve">
<path fill="#FFFFFF" opacity="1.000000" stroke="none" 
	d="
M653.000000,1131.000000 
	C435.333344,1131.000000 218.166672,1131.000000 1.000000,1131.000000 
	C1.000000,754.333313 1.000000,377.666656 1.000000,1.000000 
	C384.333344,1.000000 767.666687,1.000000 1151.000000,1.000000 
	C1151.000000,377.666656 1151.000000,754.333313 1151.000000,1131.000000 
	C985.166687,1131.000000 819.333313,1131.000000 653.000000,1131.000000 
M26.808823,581.681091 
	C26.771194,582.106445 26.733566,582.531738 26.292818,583.243591 
	C26.066671,583.520813 25.995699,583.833252 26.027899,585.094299 
	C26.017916,633.134705 25.998680,681.175049 26.038988,729.215393 
	C26.040308,730.787842 26.647900,732.359802 26.860006,734.872192 
	C26.860006,857.793823 26.860006,980.715393 26.860006,1103.756104 
	C393.320190,1103.756104 759.213257,1103.756104 1125.341431,1103.756104 
	C1125.404175,1102.394775 1125.501343,1101.264282 1125.501953,1100.133911 
	C1125.526611,1049.305176 1125.557861,998.476501 1125.557129,947.647766 
	C1125.554932,811.825623 1125.538452,676.003418 1125.864990,539.614014 
	C1125.868774,539.394226 1125.872437,539.174377 1125.985840,538.028748 
	C1125.991089,501.396423 1126.001343,464.764069 1125.983643,428.131744 
	C1125.982910,426.659576 1125.719727,425.187561 1125.546021,422.862244 
	C1125.550659,418.865570 1125.559204,414.868927 1125.559326,410.872253 
	C1125.560913,284.739868 1125.561768,158.607452 1125.562744,32.475060 
	C1125.562744,30.727270 1125.562744,28.979483 1125.562744,27.253916 
	C758.958618,27.253916 393.117706,27.253916 26.819876,27.253916 
	C26.819876,86.283371 26.819876,145.056686 26.157619,204.404266 
	C26.104746,205.233795 26.005745,206.063324 26.005600,206.892868 
	C25.997271,254.536301 25.995056,302.179749 26.008629,349.823181 
	C26.008957,350.977570 26.194033,352.131927 26.170696,353.533081 
	C26.170696,353.533081 26.157955,353.808167 26.106672,354.297699 
	C26.178106,354.647339 26.376240,354.896088 26.821602,355.967865 
	C26.826155,402.800201 26.845203,449.632568 26.829790,496.464905 
	C26.820631,524.295837 26.757212,552.126770 26.410238,580.155884 
	C26.365623,580.269226 26.252518,580.418091 26.289379,580.489197 
	C26.394093,580.691101 26.560036,580.861206 26.808823,581.681091 
z"/>
<path fill="#007AC3" opacity="1.000000" stroke="none" 
	d="
M1125.527710,540.181274 
	C1125.538452,676.003418 1125.554932,811.825623 1125.557129,947.647766 
	C1125.557861,998.476501 1125.526611,1049.305176 1125.501953,1100.133911 
	C1125.501343,1101.264282 1125.404175,1102.394775 1125.341431,1103.756104 
	C759.213257,1103.756104 393.320190,1103.756104 26.860006,1103.756104 
	C26.860006,980.715393 26.860006,857.793823 27.295155,734.442139 
	C50.029716,742.309509 72.681313,749.304749 96.397064,752.239746 
	C114.444595,754.473206 132.438232,757.432495 150.760330,755.060059 
	C163.028992,753.471436 175.401184,752.667480 187.657135,750.998779 
	C213.703568,747.452515 238.431473,739.271179 262.218811,728.328003 
	C298.174011,711.787170 329.591888,688.984009 356.186737,659.536560 
	C373.461334,640.409119 388.079346,619.528687 399.787689,596.578857 
	C409.105591,578.314636 416.458130,559.305542 421.544556,539.294006 
	C528.321472,539.294006 634.875366,539.294006 742.199646,539.294006 
	C742.199646,585.265564 742.199646,630.946533 742.199646,676.526794 
	C788.535034,676.526794 834.098694,676.526794 880.068237,676.526794 
	C880.068237,674.308899 880.068359,672.499634 880.068298,670.690308 
	C880.067688,646.862183 880.146118,623.033630 879.991638,599.206482 
	C879.964722,595.052185 881.324097,593.775085 885.453796,593.771179 
	C900.596130,593.756653 915.738037,593.379700 930.880432,593.163452 
	C934.458679,593.112366 938.038208,593.155884 942.234131,593.155884 
	C942.234131,612.581360 942.234131,631.139038 942.234131,649.584961 
	C987.758301,649.584961 1032.645264,649.584961 1078.110718,649.584961 
	C1078.110718,612.608521 1078.110718,576.046570 1078.110718,539.183228 
	C1094.145508,539.183228 1109.602051,539.183228 1125.092285,539.371460 
	C1125.147217,539.839722 1125.281006,540.046936 1125.527710,540.181274 
z"/>
<path fill="#007AC3" opacity="1.000000" stroke="none" 
	d="
M26.819876,203.830002 
	C26.819876,145.056686 26.819876,86.283371 26.819876,27.253916 
	C393.117706,27.253916 758.958618,27.253916 1125.562744,27.253916 
	C1125.562744,28.979483 1125.562744,30.727270 1125.562744,32.475060 
	C1125.561768,158.607452 1125.560913,284.739868 1125.559326,410.872253 
	C1125.559204,414.868927 1125.550659,418.865570 1125.055176,423.358215 
	C1122.565430,423.877930 1120.566650,423.922455 1118.567749,423.922485 
	C892.129761,423.925537 665.691772,423.925354 439.253815,423.925323 
	C436.587891,423.925323 433.892242,423.675842 431.263275,423.987762 
	C427.714935,424.408783 426.580078,422.565643 426.084229,419.560303 
	C425.383942,415.316406 424.712921,411.055511 423.728180,406.872803 
	C418.223846,383.492188 410.322632,360.942383 399.150421,339.665375 
	C382.523590,308.000183 361.013000,280.126923 334.118958,256.379761 
	C308.793579,234.017700 280.593384,216.477737 249.340317,203.718811 
	C220.976547,192.139481 191.395416,185.420624 160.978607,183.332321 
	C144.159454,182.177582 127.064026,182.650574 110.268089,184.239334 
	C94.013794,185.776871 77.843666,189.077545 61.901325,192.752365 
	C49.989277,195.498154 38.498337,200.070831 26.819876,203.830002 
z"/>
<path fill="#01AA59" opacity="1.000000" stroke="none" 
	d="
M26.488747,204.117126 
	C38.498337,200.070831 49.989277,195.498154 61.901325,192.752365 
	C77.843666,189.077545 94.013794,185.776871 110.268089,184.239334 
	C127.064026,182.650574 144.159454,182.177582 160.978607,183.332321 
	C191.395416,185.420624 220.976547,192.139481 249.340317,203.718811 
	C280.593384,216.477737 308.793579,234.017700 334.118958,256.379761 
	C361.013000,280.126923 382.523590,308.000183 399.150421,339.665375 
	C410.322632,360.942383 418.223846,383.492188 423.728180,406.872803 
	C424.712921,411.055511 425.383942,415.316406 426.084229,419.560303 
	C426.580078,422.565643 427.714935,424.408783 431.263275,423.987762 
	C433.892242,423.675842 436.587891,423.925323 439.253815,423.925323 
	C665.691772,423.925354 892.129761,423.925537 1118.567749,423.922485 
	C1120.566650,423.922455 1122.565430,423.877930 1125.071533,423.784790 
	C1125.719727,425.187561 1125.982910,426.659576 1125.983643,428.131744 
	C1126.001343,464.764069 1125.991089,501.396423 1125.724121,538.538940 
	C1125.462280,539.049133 1125.058594,539.183228 1125.058594,539.183228 
	C1109.602051,539.183228 1094.145508,539.183228 1078.110718,539.183228 
	C1078.110718,576.046570 1078.110718,612.608521 1078.110718,649.584961 
	C1032.645264,649.584961 987.758301,649.584961 942.234131,649.584961 
	C942.234131,631.139038 942.234131,612.581360 942.234131,593.155884 
	C938.038208,593.155884 934.458679,593.112366 930.880432,593.163452 
	C915.738037,593.379700 900.596130,593.756653 885.453796,593.771179 
	C881.324097,593.775085 879.964722,595.052185 879.991638,599.206482 
	C880.146118,623.033630 880.067688,646.862183 880.068298,670.690308 
	C880.068359,672.499634 880.068237,674.308899 880.068237,676.526794 
	C834.098694,676.526794 788.535034,676.526794 742.199646,676.526794 
	C742.199646,630.946533 742.199646,585.265564 742.199646,539.294006 
	C634.875366,539.294006 528.321472,539.294006 421.544556,539.294006 
	C416.458130,559.305542 409.105591,578.314636 399.787689,596.578857 
	C388.079346,619.528687 373.461334,640.409119 356.186737,659.536560 
	C329.591888,688.984009 298.174011,711.787170 262.218811,728.328003 
	C238.431473,739.271179 213.703568,747.452515 187.657135,750.998779 
	C175.401184,752.667480 163.028992,753.471436 150.760330,755.060059 
	C132.438232,757.432495 114.444595,754.473206 96.397064,752.239746 
	C72.681313,749.304749 50.029716,742.309509 27.351587,733.972046 
	C26.647900,732.359802 26.040308,730.787842 26.038988,729.215393 
	C25.998680,681.175049 26.017916,633.134705 26.237347,584.584351 
	C26.446793,584.074341 26.822884,584.009827 26.980459,584.313599 
	C35.152691,590.788696 42.738480,597.640137 51.257183,603.012207 
	C85.724495,624.747864 123.354790,633.122681 163.667709,626.693054 
	C203.677979,620.311707 237.323975,601.859619 263.775696,570.828674 
	C285.463531,545.386292 298.237061,515.992737 300.772614,482.739777 
	C302.326782,462.357574 300.812897,442.045776 294.389954,422.183990 
	C282.609314,385.754364 260.798462,357.060120 229.007950,336.202087 
	C197.757767,315.698517 163.255814,306.941254 125.791237,309.847961 
	C100.463676,311.813019 76.835632,318.971771 55.301731,332.282135 
	C45.173923,338.542206 35.934776,346.239990 26.292938,353.286285 
	C26.194033,352.131927 26.008957,350.977570 26.008629,349.823181 
	C25.995056,302.179749 25.997271,254.536301 26.005600,206.892868 
	C26.005745,206.063324 26.104746,205.233795 26.488747,204.117126 
z"/>
<path fill="#007AC3" opacity="1.000000" stroke="none" 
	d="
M26.231817,353.409668 
	C35.934776,346.239990 45.173923,338.542206 55.301731,332.282135 
	C76.835632,318.971771 100.463676,311.813019 125.791237,309.847961 
	C163.255814,306.941254 197.757767,315.698517 229.007950,336.202087 
	C260.798462,357.060120 282.609314,385.754364 294.389954,422.183990 
	C300.812897,442.045776 302.326782,462.357574 300.772614,482.739777 
	C298.237061,515.992737 285.463531,545.386292 263.775696,570.828674 
	C237.323975,601.859619 203.677979,620.311707 163.667709,626.693054 
	C123.354790,633.122681 85.724495,624.747864 51.257183,603.012207 
	C42.738480,597.640137 35.152691,590.788696 26.995060,584.044312 
	C26.800034,583.299866 26.747986,583.128479 26.695938,582.957092 
	C26.733566,582.531738 26.771194,582.106445 26.844845,581.092224 
	C26.826639,580.321472 26.772413,580.139587 26.718187,579.957703 
	C26.757212,552.126770 26.820631,524.295837 26.829790,496.464905 
	C26.845203,449.632568 26.826155,402.800201 26.825191,355.255371 
	C26.605175,354.297943 26.381569,354.053040 26.157959,353.808167 
	C26.157955,353.808167 26.170696,353.533081 26.231817,353.409668 
z"/>
<path fill="#BEDEED" opacity="1.000000" stroke="none" 
	d="
M26.132317,354.052917 
	C26.381569,354.053040 26.605175,354.297943 26.764927,354.793396 
	C26.376240,354.896088 26.178106,354.647339 26.132317,354.052917 
z"/>
<path fill="#7EBCE1" opacity="1.000000" stroke="none" 
	d="
M1125.092285,539.371460 
	C1125.058594,539.183228 1125.462280,539.049133 1125.669189,539.001831 
	C1125.872437,539.174377 1125.868774,539.394226 1125.696289,539.897644 
	C1125.281006,540.046936 1125.147217,539.839722 1125.092285,539.371460 
z"/>
<path fill="#BEDEED" opacity="1.000000" stroke="none" 
	d="
M26.564213,580.056763 
	C26.772413,580.139587 26.826639,580.321472 26.791367,580.773621 
	C26.560036,580.861206 26.394093,580.691101 26.289379,580.489197 
	C26.252518,580.418091 26.365623,580.269226 26.564213,580.056763 
z"/>
<path fill="#BEDEED" opacity="1.000000" stroke="none" 
	d="
M26.494377,583.100342 
	C26.747986,583.128479 26.800034,583.299866 26.837482,583.740601 
	C26.822884,584.009827 26.446793,584.074341 26.263348,584.127686 
	C25.995699,583.833252 26.066671,583.520813 26.494377,583.100342 
z"/>
</svg>