<?xml version="1.0" encoding="utf-8"?>
<!-- Generator: Adobe Illustrator 24.0.1, SVG Export Plug-In . SVG Version: 6.00 Build 0)  -->
<svg version="1.1" id="Lag_1" xmlns="http://www.w3.org/2000/svg" xmlns:xlink="http://www.w3.org/1999/xlink" x="0px" y="0px"
	 viewBox="0 0 156.4 156.4" style="enable-background:new 0 0 156.4 156.4;" xml:space="preserve">
<style type="text/css">
	.st0{fill:#FFFFFF;}
	.st1{fill:#009A44;}
</style>
<g>
	<ellipse class="st0" cx="78.2" cy="78.2" rx="60.1" ry="60.1"/>
	<g>
		<g>
			<circle class="st0" cx="78.2" cy="78.2" r="78.2"/>
		</g>
		<g>
			<path d="M26.4,34.6c1.2,1.1,2.5,0.6,3.5-0.5c1.1-1.2,0.9-2.2,0.3-2.8c-0.6-0.6-1.2-0.4-1.6-0.2c-0.7,0.4-1.5,1-2.8,1.8
				c-1.6,1-2.8,0.7-3.6-0.1c-1.6-1.4-1-3.6,0.3-5c1.5-1.7,3.6-2.2,5.3-0.7l-1.3,1.4c-1.1-0.9-2.1-0.5-2.9,0.4
				c-0.6,0.6-1.1,1.7-0.3,2.4c0.6,0.5,1.2,0.4,1.9,0c0.1-0.1,2.2-1.4,2.7-1.7c1.3-0.8,2.6-0.5,3.4,0.3c1.8,1.6,1.1,3.8-0.4,5.4
				c-1.6,1.8-3.8,2.5-5.8,0.7L26.4,34.6z"/>
			<path d="M27.2,23.4l1.5-1.2l7.4,4.8l0,0l-3.3-8.3l1.5-1.2l4,10.6l-1.6,1.3L27.2,23.4z"/>
			<path d="M38.6,14.8l1.7-1l9.1,7l-1.7,1l-2.3-1.9l-3.6,2.2l0.6,2.9l-1.6,1L38.6,14.8z M41.4,20.7l2.8-1.7l-3.8-3.1l0,0L41.4,20.7z
				"/>
			<path d="M46.6,10.4l1.8-0.7l7.4,5.5l0,0L53,7.8l1.7-0.7l3.9,9.9l-1.8,0.7l-7.4-5.5l0,0l2.9,7.3l-1.7,0.7L46.6,10.4z"/>
			<path d="M58.6,6l7.5-1.6l0.3,1.6l-5.7,1.2l0.6,2.7l5.3-1.2l0.3,1.5l-5.3,1.2l0.7,3.1l5.8-1.3l0.3,1.6l-7.6,1.7L58.6,6z"/>
			<path d="M70,3.7l2.6-0.1l3.2,8.3l0,0l2.6-8.5l2.6-0.1L81.5,14l-1.8,0.1l-0.3-8.2l0,0l-2.7,8.3l-1.5,0.1l-3.2-8.1l0,0l0.3,8.2
				l-1.8,0.1L70,3.7z"/>
			<path d="M90.1,4.4L98.6,6l-0.3,1.6l-5.1-1l-0.5,2.7l4.8,0.9l-0.3,1.5l-4.8-0.9L91.8,14l5.2,1l-0.3,1.6l-7-1.3l0.5-2.7l-3.5-0.7
				L85,14.3l-2-0.4L90.1,4.4z M87.7,10.6l2.8,0.5l0.9-4.8l-0.5-0.1L87.7,10.6z"/>
			<path d="M102.5,7.4l4.7,1.9c2.2,0.9,2.9,2.3,2.2,4c-0.8,1.9-2.3,1.8-2.7,1.8l0,0c0.6,0.3,1.3,1.1,0.6,2.7
				c-0.5,1.1-0.7,2.3-0.5,2.8L105,20c-0.1-0.5,0.1-1.1,0.3-1.6c0.7-1.8,0.7-2.8-0.9-3.4l-2.5-1l-1.7,4.1l-1.7-0.7L102.5,7.4z
				 M102.4,12.6l2.8,1.2c1.1,0.4,1.9,0.1,2.3-0.9c0.5-1.3-0.2-1.8-1.1-2.2l-2.8-1.1L102.4,12.6z"/>
			<path d="M114.1,12.5l1.6,1l-2.6,4.1l6.6-1.6l2,1.2l-5.9,1.4l0.5,7.9l-2-1.2l-0.3-6.2l-2.1,0.5l-1.9,3.1l-1.6-1L114.1,12.5z"/>
			<path d="M124.2,19.3l5.8,5l-1.1,1.2l-4.4-3.8l-1.8,2.1l4.1,3.5l-1,1.2l-4.1-3.5l-2,2.4l4.5,3.9l-1.1,1.2l-5.9-5.1L124.2,19.3z"/>
			<path d="M132,26.2l5.6,6.5l-1.2,1.1l-2.2-2.6l-6.9,5.9l-1.2-1.4l6.9-5.9l-2.2-2.6L132,26.2z"/>
		</g>
		<path class="st1" d="M61.8,20.4L18.1,80.4c0-0.7,0-1.5,0-2.3C18.1,50.7,36.6,27.5,61.8,20.4z M112.2,28.6c-3.4-2.3-7-4.3-10.8-5.9
			L47.6,96.8c2.5,1.3,3.9,3.5,8.1,3.5c2.4,0,5.5-1.6,8.5-5.7L112.2,28.6z M23.8,103.8c4.1,0,9.5-1.5,12.4-3.9c2.7-2.2,4.2-4.1,7-4.1
			c0.4,0,0.9,0,1.3,0.1l53.9-74.3c-4.1-1.5-8.4-2.5-12.8-3L23.8,103.8C23.8,103.8,23.8,103.8,23.8,103.8z M25.1,106.4
			c1.6,3,3.5,5.9,5.5,8.5l6.2-8.5L25.1,106.4z M97,106.4l-23,31.7c1.4,0.1,2.8,0.1,4.2,0.1c3.9,0,7.8-0.4,11.5-1.1l22.3-30.8
			L97,106.4z M82.1,18.2c-1.3-0.1-2.6-0.1-3.9-0.1c-4.1,0-8.1,0.4-11.9,1.2L18.5,85.1c0.6,5.4,1.9,10.5,3.9,15.4L82.1,18.2z
			 M115.8,106.4l-21.6,29.7c16-4.4,29.4-15.3,37-29.7L115.8,106.4z M78.2,106.4l-20.5,28.3c4.1,1.5,8.4,2.5,12.8,3.1l22.8-31.4
			L78.2,106.4z M59.4,106.4L44,127.6c3.4,2.3,6.9,4.3,10.7,5.9l19.7-27.1L59.4,106.4z M40.6,106.4l-8,11c2.7,3.1,5.7,5.9,8.9,8.4
			l14.1-19.4L40.6,106.4z M43.3,97.7c-1.2,0-2.2,1-2.2,2.2c0,1.2,1,2.2,2.2,2.2s2.2-1,2.2-2.2C45.5,98.6,44.5,97.7,43.3,97.7z
			 M138.3,75.5c-0.1-1.6-0.2-3.1-0.4-4.7l-21.1,29h3.8L138.3,75.5z M132.5,52.4L98,99.9h3.8l32.2-44.3
			C133.5,54.5,133,53.4,132.5,52.4z M123.6,38.8L79.2,99.9H83l42.6-58.7C125,40.4,124.3,39.5,123.6,38.8z"/>
	</g>
</g>
</svg>
